<?xml version="1.0" encoding="UTF-8"?>
<svg version="1.1" xmlns="http://www.w3.org/2000/svg" width="231" height="231">
<path d="M0 0 C76.23 0 152.46 0 231 0 C231 76.23 231 152.46 231 231 C154.77 231 78.54 231 0 231 C0 154.77 0 78.54 0 0 Z " fill="#FDFDFD" transform="translate(0,0)"/>
<path d="M0 0 C0 16.17 0 32.34 0 49 C-2.64 47.02 -5.28 45.04 -8 43 C-9.32 42.34 -10.64 41.68 -12 41 C-22.92702574 55.50932905 -33.815771 70.04898331 -44.31738281 84.87036133 C-47.42780437 89.24256963 -50.6391754 93.53254246 -53.875 97.8125 C-58.02457857 103.30294687 -62.05409 108.86151247 -66 114.5 C-91.32826039 150.58841556 -91.32826039 150.58841556 -112 156 C-128.41577319 157.58131834 -141.06803017 154.90055015 -154.0390625 144.33984375 C-163.22569206 135.78049506 -168.3938107 123.9168491 -169.2421875 111.4375 C-169.24885304 108.61131055 -169.18589882 105.81946548 -169 103 C-166.84566328 105.15433672 -166.14742648 106.79137806 -164.9375 109.5625 C-160.18828318 119.17202643 -152.82327679 125.02813357 -143 129 C-133.32963551 132.22345483 -121.52335442 130.71221765 -112.48046875 126.484375 C-106.30810106 122.79067465 -102.68700293 118.20366555 -98.5625 112.4375 C-97.31531612 110.71859619 -96.06791418 108.99985059 -94.8203125 107.28125 C-93.86946777 105.96447266 -93.86946777 105.96447266 -92.89941406 104.62109375 C-90.51358763 101.32877594 -88.09794223 98.0591861 -85.67919922 94.79101562 C-78.37283803 84.91810815 -71.1743757 74.96901991 -64 65 C-61.85536763 62.0199661 -59.70963485 59.0407314 -57.5625 56.0625 C-57.03672363 55.33264893 -56.51094727 54.60279785 -55.96923828 53.85083008 C-53.05165816 49.80984444 -50.10989479 45.78834176 -47.140625 41.78515625 C-46.50181396 40.9233374 -45.86300293 40.06151855 -45.20483398 39.17358398 C-43.97022173 37.51081565 -42.73287777 35.85007113 -41.49243164 34.19165039 C-40.93418701 33.44004639 -40.37594238 32.68844238 -39.80078125 31.9140625 C-39.30747314 31.2535791 -38.81416504 30.5930957 -38.3059082 29.91259766 C-36.75232154 27.72968097 -36.75232154 27.72968097 -35 24 C-38.63 21.69 -42.26 19.38 -46 17 C-43.89470292 14.89470292 -42.70282596 14.37680468 -39.94921875 13.39599609 C-38.69782104 12.94575577 -38.69782104 12.94575577 -37.42114258 12.48641968 C-36.51904053 12.16863556 -35.61693848 11.85085144 -34.6875 11.5234375 C-33.76283936 11.19332672 -32.83817871 10.86321594 -31.88549805 10.52310181 C-29.9295125 9.82616539 -27.97253266 9.13201424 -26.01464844 8.44042969 C-23.00991948 7.37850572 -20.00867623 6.30716656 -17.0078125 5.234375 C-15.10957404 4.55933587 -13.21114289 3.88483827 -11.3125 3.2109375 C-10.41039795 2.88910492 -9.5082959 2.56727234 -8.57885742 2.23568726 C-7.32745972 1.79490341 -7.32745972 1.79490341 -6.05078125 1.34521484 C-5.31512939 1.08477386 -4.57947754 0.82433289 -3.8215332 0.55599976 C-2 0 -2 0 0 0 Z " fill="#8FC641" transform="translate(193,1)"/>
<path d="M0 0 C6.57029678 4.83735443 11.15045504 10.89446815 15.6015625 17.65234375 C16.73058936 19.33542856 17.86082509 21.017703 18.9921875 22.69921875 C19.55873047 23.54419922 20.12527344 24.38917969 20.70898438 25.25976562 C23.36530179 29.18186545 26.10722825 33.04158213 28.8515625 36.90234375 C29.83364523 38.29535308 30.81543007 39.68857248 31.796875 41.08203125 C33.35517053 43.29138779 34.93065038 45.480742 36.53125 47.66015625 C37.09070313 48.44132812 37.65015625 49.2225 38.2265625 50.02734375 C38.68675781 50.65125 39.14695312 51.27515625 39.62109375 51.91796875 C40.74511246 54.55359882 40.17642538 56.0391528 39.4140625 58.77734375 C38.04711914 61.04150391 38.04711914 61.04150391 36.32421875 63.31640625 C35.70482422 64.14398438 35.08542969 64.9715625 34.44726562 65.82421875 C33.47176758 67.10039062 33.47176758 67.10039062 32.4765625 68.40234375 C31.19626397 70.10260063 29.91630163 71.80311072 28.63671875 73.50390625 C28.06703369 74.25236816 27.49734863 75.00083008 26.91040039 75.77197266 C25.69329131 77.40312521 24.54298481 79.08396028 23.4140625 80.77734375 C18.85720576 79.26893978 16.90915843 75.53374806 14.4140625 71.71484375 C13.44519709 70.26743413 12.47510067 68.82084792 11.50390625 67.375 C11.00101074 66.62234863 10.49811523 65.86969727 9.97998047 65.09423828 C7.37314266 61.23722381 4.67387615 57.44638111 1.9765625 53.65234375 C0.99795733 52.27526557 0.02005728 50.89768596 -0.95703125 49.51953125 C-1.36880615 48.94058105 -1.78058105 48.36163086 -2.20483398 47.76513672 C-4.03666246 45.12862489 -5.80511745 42.44857383 -7.5859375 39.77734375 C-7.9159375 65.51734375 -8.2459375 91.25734375 -8.5859375 117.77734375 C-18.93667381 121.65886987 -26.31960357 121.97014903 -36.5859375 117.77734375 C-37.8763092 117.27855209 -37.8763092 117.27855209 -39.19274902 116.76968384 C-41.5859375 114.77734375 -41.5859375 114.77734375 -42.20739746 110.90853882 C-42.23108141 109.25608883 -42.22683385 107.60310405 -42.20117188 105.95068359 C-42.20672089 105.04786652 -42.2122699 104.14504944 -42.21798706 103.21487427 C-42.22982244 100.22214092 -42.20545763 97.23090944 -42.1796875 94.23828125 C-42.1779765 92.15662709 -42.17804197 90.07497077 -42.17980957 87.99331665 C-42.17815379 83.62342801 -42.15941698 79.25405076 -42.12792969 74.88427734 C-42.08839905 69.29910568 -42.08386586 63.71460883 -42.09139252 58.12932396 C-42.09447294 53.82599779 -42.08230117 49.52282154 -42.06526184 45.21953201 C-42.05825612 43.161576 -42.05510435 41.10360298 -42.05595398 39.04563522 C-42.05414301 36.15690636 -42.032646 33.26896298 -42.00585938 30.38037109 C-42.00878998 29.53847229 -42.01172058 28.69657349 -42.01473999 27.8291626 C-41.88761322 18.88009243 -39.42076057 10.69656523 -33.01953125 4.18359375 C-23.39791029 -4.59855692 -11.68402271 -6.13101545 0 0 Z " fill="#244370" transform="translate(84.5859375,7.22265625)"/>
<path d="M0 0 C3.59859412 0.74872823 6.18088184 1.91842868 8.75604248 4.66125488 C11.74829497 10.28694209 10.80276108 17.6382269 10.7265625 23.859375 C10.72552393 25.53078204 10.72656463 27.20219155 10.72958374 28.87359619 C10.72940459 32.37411055 10.70861794 35.87370096 10.67236328 39.37402344 C10.62712807 43.83709618 10.62587745 48.29881206 10.63939857 52.76205063 C10.64612 56.21449607 10.63273794 59.66663848 10.61314011 63.11902618 C10.60549697 64.76306822 10.60311414 66.40714417 10.6063118 68.05120087 C10.61020252 80.02072499 9.67639173 90.22630316 1.0390625 99.3046875 C-4.82217186 104.17782105 -11.75125311 105.77042536 -19.265625 105.44140625 C-29.32407859 103.81768446 -34.83994446 97.51846541 -40.70019531 89.74462891 C-42.34175843 87.45980323 -43.92774359 85.14546255 -45.5 82.8125 C-46.04914063 82.03197266 -46.59828125 81.25144531 -47.1640625 80.44726562 C-47.67710937 79.68736328 -48.19015625 78.92746094 -48.71875 78.14453125 C-49.18216797 77.46753174 -49.64558594 76.79053223 -50.12304688 76.09301758 C-51.29879717 73.28686299 -50.93720101 71.86798024 -50 69 C-48.74072266 66.84350586 -48.74072266 66.84350586 -47.1640625 64.71484375 C-46.59429687 63.93689453 -46.02453125 63.15894531 -45.4375 62.35742188 C-44.839375 61.55884766 -44.24125 60.76027344 -43.625 59.9375 C-43.03460938 59.13505859 -42.44421875 58.33261719 -41.8359375 57.50585938 C-39.24409992 53.98878248 -36.62235647 50.49435127 -34 47 C-30.23924335 48.25358555 -29.52350869 49.70673887 -27.3125 52.9375 C-26.68988281 53.83339844 -26.06726563 54.72929688 -25.42578125 55.65234375 C-24 58 -24 58 -24 60 C-23.34 60 -22.68 60 -22 60 C-22.0628418 59.21052979 -22.12568359 58.42105957 -22.19042969 57.60766602 C-24.05798254 30.54587956 -24.05798254 30.54587956 -14.99804688 19.59619141 C-13.89817676 18.33831997 -12.78267067 17.09393551 -11.65136719 15.86425781 C-8.90086682 12.75916898 -6.60553677 9.34537261 -4.25 5.9375 C-3.42415822 4.77831788 -2.59627611 3.62058446 -1.765625 2.46484375 C-1.18296875 1.65144531 -0.6003125 0.83804688 0 0 Z " fill="#254370" transform="translate(181,48)"/>
<path d="M0 0 C3.97902723 2.77606551 6.87784719 5.33306676 8.359375 9.984375 C9.24696336 15.13238747 8.46630081 18.70672653 5.8671875 23.21484375 C3.57509587 26.44046939 1.3864088 27.6420304 -2.3125 28.875 C-7.82881707 29.36056326 -12.70368901 29.59321919 -17.8125 27.3125 C-22.06833971 23.16305628 -24.02788206 19.86732555 -24.875 13.9375 C-24.60175768 9.09451542 -22.44320567 5.4873527 -19.3125 1.875 C-13.59950994 -2.37652749 -6.54841848 -2.22399118 0 0 Z " fill="#2B4977" transform="translate(208.3125,199.125)"/>
<path d="M0 0 C2.64 0 5.28 0 8 0 C8 0.99 8 1.98 8 3 C8.639375 2.505 9.27875 2.01 9.9375 1.5 C14.06131943 -0.51982993 17.48404628 -0.72350667 22 0 C26.07735825 2.07574602 28.34293818 3.75146443 30 8 C30.22705078 10.47363281 30.22705078 10.47363281 30.1953125 13.203125 C30.18886719 14.1828125 30.18242188 15.1625 30.17578125 16.171875 C30.15902344 17.18765625 30.14226563 18.2034375 30.125 19.25 C30.11597656 20.28125 30.10695313 21.3125 30.09765625 22.375 C30.07412011 24.91690287 30.04124023 27.4583328 30 30 C27.36 30 24.72 30 22 30 C21.98018066 29.40461426 21.96036133 28.80922852 21.93994141 28.19580078 C21.84483874 25.50507847 21.73510158 22.81514852 21.625 20.125 C21.5940625 19.18785156 21.563125 18.25070313 21.53125 17.28515625 C21.49257813 16.38925781 21.45390625 15.49335938 21.4140625 14.5703125 C21.3826416 13.74289551 21.3512207 12.91547852 21.31884766 12.06298828 C21.17400863 9.78013915 21.17400863 9.78013915 19 8 C14.38545951 7.44867894 14.38545951 7.44867894 10.30932617 9.24145508 C8.67651832 11.43446552 8.57942528 12.73312653 8.48828125 15.44921875 C8.45283203 16.29677734 8.41738281 17.14433594 8.38085938 18.01757812 C8.34702148 19.33918945 8.34702148 19.33918945 8.3125 20.6875 C8.26125977 22.02651367 8.26125977 22.02651367 8.20898438 23.39257812 C8.12654352 25.59492671 8.05738449 27.79687938 8 30 C5.36 30 2.72 30 0 30 C0 20.1 0 10.2 0 0 Z " fill="#2C4977" transform="translate(15,198)"/>
<path d="M0 0 C2.31 0 4.62 0 7 0 C7.33 0.99 7.66 1.98 8 3 C8.474375 2.505 8.94875 2.01 9.4375 1.5 C13.23064985 -0.7203804 16.7036758 -0.56874417 21 0 C24.76136974 1.63537815 26.84828959 3.53754723 29 7 C29.34057617 9.56542969 29.34057617 9.56542969 29.29296875 12.421875 C29.28330078 13.44667969 29.27363281 14.47148437 29.26367188 15.52734375 C29.23853516 16.59082031 29.21339844 17.65429688 29.1875 18.75 C29.16719727 20.36841797 29.16719727 20.36841797 29.14648438 22.01953125 C29.11116584 24.6801942 29.06184199 27.33984296 29 30 C26.69 30 24.38 30 22 30 C21.98541748 29.44014404 21.97083496 28.88028809 21.95581055 28.3034668 C21.88128648 25.76411863 21.78464419 23.22607922 21.6875 20.6875 C21.66494141 19.80642578 21.64238281 18.92535156 21.61914062 18.01757812 C21.5659668 16.74624023 21.5659668 16.74624023 21.51171875 15.44921875 C21.48553467 14.66893311 21.45935059 13.88864746 21.43237305 13.0847168 C20.89202173 10.47937524 20.13174979 9.56533541 18 8 C14.45800359 7.58326793 14.45800359 7.58326793 11 8 C8.56085508 10.43914492 8.71337477 11.21446431 8.5859375 14.5703125 C8.52792969 15.91416016 8.52792969 15.91416016 8.46875 17.28515625 C8.42234375 18.69087891 8.42234375 18.69087891 8.375 20.125 C8.31699219 21.54232422 8.31699219 21.54232422 8.2578125 22.98828125 C8.16338654 25.32532375 8.07781606 27.66235501 8 30 C5.36 30 2.72 30 0 30 C0 20.1 0 10.2 0 0 Z " fill="#294774" transform="translate(149,198)"/>
<path d="M0 0 C1.5159375 0.00580078 1.5159375 0.00580078 3.0625 0.01171875 C6.05225499 0.31785058 8.28352213 1.0591251 11 2.3125 C10.67 4.2925 10.34 6.2725 10 8.3125 C9.360625 8.1475 8.72125 7.9825 8.0625 7.8125 C4.02413348 7.15317485 0.08192742 7.23246221 -4 7.3125 C-4 8.6325 -4 9.9525 -4 11.3125 C-3.10796875 11.47105469 -2.2159375 11.62960938 -1.296875 11.79296875 C-0.12640625 12.02628906 1.0440625 12.25960937 2.25 12.5 C3.41015625 12.72042969 4.5703125 12.94085938 5.765625 13.16796875 C9.59983612 14.52476085 10.91869921 15.8574374 13 19.3125 C12.94012719 22.78512318 12.73439954 25.19157439 10.8125 28.125 C5.92582998 31.3266114 0.71862351 31.88326473 -5 31.3125 C-7.41036542 30.78395106 -9.65323085 30.09475638 -12 29.3125 C-12.625 27.5 -12.625 27.5 -13 25.3125 C-12.01 23.8275 -12.01 23.8275 -11 22.3125 C-10.45859375 22.47621094 -9.9171875 22.63992187 -9.359375 22.80859375 C-6.59777407 23.39840587 -4.07181861 23.40859308 -1.25 23.375 C-0.26515625 23.36597656 0.7196875 23.35695312 1.734375 23.34765625 C2.48203125 23.33605469 3.2296875 23.32445312 4 23.3125 C4.33 22.3225 4.66 21.3325 5 20.3125 C4.19175781 20.21453125 3.38351563 20.1165625 2.55078125 20.015625 C-8.77176023 18.43128868 -8.77176023 18.43128868 -12 14.3125 C-12.91654656 10.89072616 -13.32835544 8.49457959 -12.375 5.0625 C-9.03848986 0.81603254 -5.20852606 -0.08636587 0 0 Z " fill="#36507A" transform="translate(116,197.6875)"/>
<path d="M0 0 C5.10880829 -0.70466321 5.10880829 -0.70466321 8 0 C10.49126669 2.37660588 12.25736814 5.04280654 14 8 C16.64752004 5.42215154 18.94432065 3.08351902 21 0 C22.9453125 -0.29296875 22.9453125 -0.29296875 25.125 -0.1875 C26.40375 -0.125625 27.6825 -0.06375 29 0 C27.65070536 3.83663072 25.92248975 6.65172569 23.375 9.8125 C22.74335937 10.60269531 22.11171875 11.39289063 21.4609375 12.20703125 C20.97882813 12.79871094 20.49671875 13.39039063 20 14 C21.61401987 17.57632824 23.78551304 20.54722091 26.125 23.6875 C30 28.89323843 30 28.89323843 30 30 C26.86777159 30.50115655 24.11209905 30.68820402 21 30 C18.44649143 27.64767696 16.71118512 25.00631739 15 22 C12.35247996 24.57784846 10.05567935 26.91648098 8 30 C5.8359375 30.29296875 5.8359375 30.29296875 3.375 30.1875 C2.14910156 30.14689453 2.14910156 30.14689453 0.8984375 30.10546875 C0.27195313 30.07066406 -0.35453125 30.03585938 -1 30 C1.25791151 25.9859351 3.92438493 22.56548827 6.890625 19.0625 C8.2086516 17.03355799 8.2086516 17.03355799 7.89453125 14.57421875 C6.83812318 11.53416233 5.36449531 9.38572 3.4375 6.8125 C0 2.19919517 0 2.19919517 0 0 Z " fill="#294573" transform="translate(50,198)"/>
<path d="M0 0 C0.66 0.66 1.32 1.32 2 2 C1.484375 2.391875 0.96875 2.78375 0.4375 3.1875 C-0.036875 3.785625 -0.51125 4.38375 -1 5 C-0.78472656 5.76207764 -0.56945312 6.52415527 -0.34765625 7.30932617 C0 10 0 10 -1.6171875 12.3605957 C-2.36226562 13.18648193 -3.10734375 14.01236816 -3.875 14.86328125 C-9.15085155 21.70741184 -9.12584752 27.78508079 -9 36.1875 C-9.00811367 37.53453175 -9.01981083 38.88154685 -9.03515625 40.22851562 C-9.0585165 43.48727092 -9.04605043 46.74161205 -9 50 C-9.66 50 -10.32 50 -11 50 C-12.4631783 48.02559073 -13.80713064 46.06761129 -15.125 44 C-15.68380859 43.14148438 -15.68380859 43.14148438 -16.25390625 42.265625 C-17.17550408 40.84778218 -18.08855821 39.42439275 -19 38 C-23.66622919 39.55540973 -25.52587346 43.96066682 -28.06445312 47.984375 C-31.29364183 52.80079206 -31.29364183 52.80079206 -35.32421875 53.9375 C-36.20722656 53.958125 -37.09023437 53.97875 -38 54 C-36.42866373 49.14652346 -33.6407623 45.60465329 -30.5625 41.625 C-29.46806117 40.18802437 -28.37432617 38.75051245 -27.28125 37.3125 C-26.72953125 36.58933594 -26.1778125 35.86617187 -25.609375 35.12109375 C-23.22642667 31.98046039 -20.88991042 28.80691236 -18.5625 25.625 C-18.12647461 25.02953369 -17.69044922 24.43406738 -17.24121094 23.82055664 C-11.45742343 15.90705562 -5.72907084 7.95315297 0 0 Z " fill="#F4F6F4" transform="translate(168,58)"/>
<path d="M0 0 C0.99 0.33 1.98 0.66 3 1 C2.67 2.98 2.34 4.96 2 7 C-0.31 7 -2.62 7 -5 7 C-5.66 8.98 -6.32 10.96 -7 13 C-4.36 13 -1.72 13 1 13 C1 14.65 1 16.3 1 18 C-1.64 18 -4.28 18 -7 18 C-7 25.92 -7 33.84 -7 42 C-9.64 42 -12.28 42 -15 42 C-15 34.41 -15 26.82 -15 19 C-16.65 19 -18.3 19 -20 19 C-20 17.02 -20 15.04 -20 13 C-18.35 13 -16.7 13 -15 13 C-15.103125 12.13375 -15.20625 11.2675 -15.3125 10.375 C-14.88126027 5.71761095 -13.23508273 4.31210851 -10 1 C-6.85658007 -0.57170996 -3.44228549 -0.23175783 0 0 Z " fill="#2E4974" transform="translate(100,186)"/>
<path d="M0 0 C3.65907504 0.68607657 5.35167676 1.98984314 8 4.5625 C9.41000664 7.38251327 9.24548451 9.43257255 9 12.5625 C6.73529412 17.19485294 6.73529412 17.19485294 4 18.5625 C-0.29322859 19.04852588 -2.32082639 19.02491608 -5.9375 16.5625 C-8.23136937 13.22596274 -8.7545711 11.46287614 -8.484375 7.5 C-7.33922431 2.91939725 -4.4623814 0.83669651 0 0 Z " fill="#F3F6F8" transform="translate(200,203.4375)"/>
<path d="M0 0 C2.31 0 4.62 0 7 0 C9.13262124 3.19893186 9.59021548 5.22998243 10 9 C9.67 9.33 9.34 9.66 9 10 C8.84344973 11.48638992 8.74933057 12.97949127 8.68359375 14.47265625 C8.64169922 15.37177734 8.59980469 16.27089844 8.55664062 17.19726562 C8.49766602 18.61555664 8.49766602 18.61555664 8.4375 20.0625 C8.39431641 21.01189453 8.35113281 21.96128906 8.30664062 22.93945312 C8.20020724 25.29281353 8.09818992 27.64628354 8 30 C5.36 30 2.72 30 0 30 C0 20.1 0 10.2 0 0 Z " fill="#2A4673" transform="translate(149,198)"/>
<path d="M0 0 C4.29 0 8.58 0 13 0 C14 4 14 4 13 7 C5.575 6.01 5.575 6.01 -2 5 C-1.34 3.35 -0.68 1.7 0 0 Z " fill="#2E4675" transform="translate(113,199)"/>
<path d="M0 0 C2.5 0.25 2.5 0.25 4.5 2.25 C4.75 5.25 4.75 5.25 4.5 8.25 C3.84 8.91 3.18 9.57 2.5 10.25 C-0.79714793 9.92028521 -2.1226839 9.6273161 -4.5 7.25 C-4.75 4.75 -4.75 4.75 -4.5 2.25 C-2.5 0.25 -2.5 0.25 0 0 Z " fill="#264571" transform="translate(137.5,218.75)"/>
<path d="M0 0 C2.64 0 5.28 0 8 0 C11.22265625 5.2734375 11.22265625 5.2734375 12 7 C11.67 7.66 11.34 8.32 11 9 C10.64830932 10.32860925 10.31229724 11.66158328 10 13 C9.608125 12.05125 9.21625 11.1025 8.8125 10.125 C6.71223949 6.50386119 5.72510247 6.43273172 2 5 C0.6875 2.375 0.6875 2.375 0 0 Z " fill="#3A507A" transform="translate(50,198)"/>
<path d="M0 0 C0.66 0.66 1.32 1.32 2 2 C1.484375 2.391875 0.96875 2.78375 0.4375 3.1875 C-0.036875 3.785625 -0.51125 4.38375 -1 5 C-0.835 5.825 -0.67 6.65 -0.5 7.5 C0 10 0 10 -1.0625 11.8125 C-3.75551955 13.46306037 -5.90570428 13.20628638 -9 13 C-8.06398754 11.58235006 -7.1261208 10.16592432 -6.1875 8.75 C-5.66542969 7.96109375 -5.14335937 7.1721875 -4.60546875 6.359375 C-3.12865878 4.18907519 -1.59310127 2.08586232 0 0 Z " fill="#F1F4E7" transform="translate(168,58)"/>
<path d="M0 0 C0.33 0 0.66 0 1 0 C1 5.94 1 11.88 1 18 C-1.64 18 -4.28 18 -7 18 C-7 14.37 -7 10.74 -7 7 C-6.67 7 -6.34 7 -6 7 C-6 9.64 -6 12.28 -6 15 C-4.02 15.66 -2.04 16.32 0 17 C0 11.39 0 5.78 0 0 Z " fill="#587294" transform="translate(156,210)"/>
<path d="M0 0 C2.19921875 0.03125 2.19921875 0.03125 5.88671875 0.53125 C5.55671875 1.19125 5.22671875 1.85125 4.88671875 2.53125 C3.23671875 2.53125 1.58671875 2.53125 -0.11328125 2.53125 C-0.25765625 3.335625 -0.40203125 4.14 -0.55078125 4.96875 C-1.11328125 7.53125 -1.11328125 7.53125 -2.11328125 8.53125 C-3.7794524 8.57188832 -5.4471622 8.573971 -7.11328125 8.53125 C-3.56888663 0.89716928 -3.56888663 0.89716928 0 0 Z " fill="#3F5880" transform="translate(73.11328125,197.46875)"/>
<path d="M0 0 C3 1 3 1 4.1875 3.0625 C4.455625 3.701875 4.72375 4.34125 5 5 C4.34 5.66 3.68 6.32 3 7 C0.4375 6.75 0.4375 6.75 -2 6 C-2.33 5.34 -2.66 4.68 -3 4 C-2.34 4 -1.68 4 -1 4 C-0.67 2.68 -0.34 1.36 0 0 Z " fill="#304E7B" transform="translate(137,222)"/>
<path d="M0 0 C1.875 0.3125 1.875 0.3125 4 1 C6 4 6 4 6 7 C3.00675737 5.9024777 2.15389099 5.32317108 0.75 2.375 C0.5025 1.59125 0.255 0.8075 0 0 Z " fill="#324A74" transform="translate(54,204)"/>
<path d="M0 0 C0.99 0 1.98 0 3 0 C3 1.32 3 2.64 3 4 C3.66 4 4.32 4 5 4 C5 4.66 5 5.32 5 6 C3.35 6 1.7 6 0 6 C0 4.02 0 2.04 0 0 Z " fill="#3B577F" transform="translate(80,199)"/>
<path d="M0 0 C0.66 0.33 1.32 0.66 2 1 C-1.96 4.465 -1.96 4.465 -6 8 C-6.66 7.67 -7.32 7.34 -8 7 C-5.36 4.69 -2.72 2.38 0 0 Z " fill="#274975" transform="translate(56,8)"/>
<path d="M0 0 C0.33 1.32 0.66 2.64 1 4 C-0.9375 6.25 -0.9375 6.25 -3 8 C-3.66 7.67 -4.32 7.34 -5 7 C-3.35 4.69 -1.7 2.38 0 0 Z " fill="#30507C" transform="translate(135,111)"/>
</svg>
