<?xml version="1.0" encoding="UTF-8"?>
<svg version="1.1" xmlns="http://www.w3.org/2000/svg" width="232" height="232">
<path d="M0 0 C76.56 0 153.12 0 232 0 C232 76.56 232 153.12 232 232 C155.44 232 78.88 232 0 232 C0 155.44 0 78.88 0 0 Z " fill="#2E363B" transform="translate(0,0)"/>
<path d="M0 0 C0 16.17 0 32.34 0 49 C-4.06438079 46.29041281 -6.82644073 44.41767921 -10 41 C-14.16684378 42.51178006 -16.05044536 45.4709706 -18.4375 49 C-19.32741601 50.27913938 -20.21807732 51.55776048 -21.109375 52.8359375 C-21.57923828 53.51495117 -22.04910156 54.19396484 -22.53320312 54.89355469 C-25.04430524 58.49971132 -27.61475402 62.06267614 -30.1875 65.625 C-30.72947021 66.37652344 -31.27144043 67.12804687 -31.82983398 67.90234375 C-35.98925293 73.65029968 -40.23078624 79.33328024 -44.5 85 C-52.04749468 95.01826849 -59.39556847 105.1715365 -66.69677734 115.37011719 C-92.53698554 151.45111143 -92.53698554 151.45111143 -111.8125 155.875 C-113.20700038 155.94886125 -114.60363994 155.98370913 -116 156 C-117.2065625 156.06058594 -118.413125 156.12117187 -119.65625 156.18359375 C-132.11783059 156.66002216 -142.24861149 154.06531955 -152 146 C-163.69083164 135.10671261 -169.22800899 121.96944897 -170.17578125 106.046875 C-170.18529283 104.03042096 -170.10598365 102.01368936 -170 100 C-167.78347782 102.21652218 -167.32505367 103.63479958 -166.3125 106.5625 C-162.5768814 116.01061566 -157.46383691 121.36011757 -148.453125 126.00390625 C-145.97800876 127.18810937 -145.97800876 127.18810937 -143 127 C-143.969375 126.566875 -144.93875 126.13375 -145.9375 125.6875 C-149 124 -149 124 -150 121 C-150.12263683 117.96957611 -150.18862975 114.96110903 -150.20874023 111.9296875 C-150.22341591 110.53638969 -150.22341591 110.53638969 -150.23838806 109.11494446 C-150.26834534 106.03497751 -150.28973376 102.9550542 -150.30859375 99.875 C-150.31516558 98.82132233 -150.3217374 97.76764465 -150.32850838 96.68203735 C-150.36111052 91.09972476 -150.38555399 85.51743126 -150.4050293 79.93505859 C-150.4228084 75.32572429 -150.45757355 70.71700567 -150.50756836 66.10791016 C-150.5679474 60.53468394 -150.59853024 54.96202648 -150.60820198 49.38848877 C-150.61673121 47.27070501 -150.63548628 45.15293539 -150.6649456 43.03533936 C-150.96114101 20.52376269 -150.96114101 20.52376269 -141.99143982 10.82910156 C-136.30425569 5.25568995 -130.52069326 2.91786172 -122.625 2.5625 C-115.69519707 2.77424398 -109.77870786 4.75056983 -104.375 9.125 C-103.199375 10.548125 -103.199375 10.548125 -102 12 C-101.40832031 12.69996094 -100.81664063 13.39992188 -100.20703125 14.12109375 C-95.8538167 19.38368387 -92.0080038 24.87337956 -88.2734375 30.5859375 C-85.57074272 34.68784756 -82.71796732 38.68219524 -79.875 42.6875 C-78.8475253 44.14443891 -77.82017758 45.60146738 -76.79296875 47.05859375 C-75.1692884 49.35876219 -73.52978635 51.64041895 -71.86328125 53.91015625 C-71.03376953 55.06837891 -71.03376953 55.06837891 -70.1875 56.25 C-69.72730469 56.87390625 -69.26710938 57.4978125 -68.79296875 58.140625 C-67.67280649 60.76721237 -68.25194989 62.27088604 -69 65 C-70.25927734 67.15649414 -70.25927734 67.15649414 -71.8359375 69.28515625 C-72.40570313 70.06310547 -72.97546875 70.84105469 -73.5625 71.64257812 C-74.160625 72.44115234 -74.75875 73.23972656 -75.375 74.0625 C-75.96539062 74.86494141 -76.55578125 75.66738281 -77.1640625 76.49414062 C-79.75590008 80.01121752 -82.37764353 83.50564873 -85 87 C-88.47124312 85.84291896 -88.86593214 85.12825072 -90.8203125 82.16796875 C-91.35140625 81.37487305 -91.8825 80.58177734 -92.4296875 79.76464844 C-92.98914063 78.91418945 -93.54859375 78.06373047 -94.125 77.1875 C-95.29217315 75.4452075 -96.4614475 73.70432078 -97.6328125 71.96484375 C-98.20547852 71.11390137 -98.77814453 70.26295898 -99.36816406 69.38623047 C-102.15609317 65.30944725 -105.12973714 61.38852737 -108.12890625 57.46484375 C-109.78714855 55.28039513 -111.37388306 53.06501484 -112.9375 50.8125 C-114.70047237 47.95942853 -114.70047237 47.95942853 -117 47 C-117 73.4 -117 99.8 -117 127 C-107.08008584 125.01601717 -102.94996036 118.79633888 -97.34667969 110.89257812 C-95.8632819 108.807861 -94.35900087 106.73927091 -92.8515625 104.671875 C-87.92183881 97.89956844 -83.04178406 91.10146219 -78.3125 84.1875 C-74.95752644 79.30197282 -71.43032855 74.60036592 -67.7890625 69.92871094 C-64.4407793 65.61753955 -61.25915354 61.19972398 -58.11499023 56.73828125 C-53.61510548 50.38837604 -48.90457965 44.19695976 -44.17700195 38.01538086 C-40.74592509 33.48978823 -37.68263059 29.00802646 -35 24 C-38.3 21.69 -41.6 19.38 -45 17 C-41.76290833 13.76290833 -40.2373626 13.25662156 -35.9375 12.0625 C-31.95633594 10.90187461 -28.08073493 9.71399676 -24.25 8.125 C-19.55187862 6.18041334 -14.79061719 4.45037955 -10 2.75 C-8.86739746 2.34418701 -8.86739746 2.34418701 -7.71191406 1.93017578 C-2.24080409 -0 -2.24080409 -0 0 0 Z " fill="#8EC33D" transform="translate(195,1)"/>
<path d="M0 0 C2.625 2.125 2.625 2.125 5 5 C5.59167969 5.69996094 6.18335938 6.39992188 6.79296875 7.12109375 C11.1461833 12.38368387 14.9919962 17.87337956 18.7265625 23.5859375 C21.42925728 27.68784756 24.28203268 31.68219524 27.125 35.6875 C28.1524747 37.14443891 29.17982242 38.60146738 30.20703125 40.05859375 C31.8307116 42.35876219 33.47021365 44.64041895 35.13671875 46.91015625 C35.96623047 48.06837891 35.96623047 48.06837891 36.8125 49.25 C37.27269531 49.87390625 37.73289062 50.4978125 38.20703125 51.140625 C39.32719351 53.76721237 38.74805011 55.27088604 38 58 C36.74072266 60.15649414 36.74072266 60.15649414 35.1640625 62.28515625 C34.59429687 63.06310547 34.02453125 63.84105469 33.4375 64.64257812 C32.839375 65.44115234 32.24125 66.23972656 31.625 67.0625 C31.03460938 67.86494141 30.44421875 68.66738281 29.8359375 69.49414062 C27.24409992 73.01121752 24.62235647 76.50564873 22 80 C18.52875688 78.84291896 18.13406786 78.12825072 16.1796875 75.16796875 C15.64867432 74.37503418 15.11766113 73.58209961 14.57055664 72.76513672 C13.7312561 71.48920654 13.7312561 71.48920654 12.875 70.1875 C11.70656329 68.44257807 10.5359875 66.69908663 9.36328125 64.95703125 C8.7904541 64.1057666 8.21762695 63.25450195 7.62744141 62.37744141 C5.52402222 59.30466973 3.31824697 56.33782949 1.0625 53.375 C-9 40.15636531 -9 40.15636531 -9 37 C-9.66 37 -10.32 37 -11 37 C-11 63.4 -11 89.8 -11 117 C-19.05218178 120.45093505 -25.12859855 121.92172979 -33.46630859 118.63256836 C-34.59891113 118.08221924 -35.73151367 117.53187012 -36.8984375 116.96484375 C-38.04747559 116.41304443 -39.19651367 115.86124512 -40.38037109 115.29272461 C-41.24484863 114.86612549 -42.10932617 114.43952637 -43 114 C-43.13938095 101.54289358 -43.2458144 89.08597447 -43.31087303 76.62824535 C-43.34210739 70.84278389 -43.38443634 65.05785823 -43.45263672 59.27270508 C-43.51811012 53.68351837 -43.55376536 48.09484512 -43.56926346 42.50530434 C-43.58029963 40.37913245 -43.60185056 38.25298681 -43.63438034 36.12703514 C-43.96624759 13.52733845 -43.96624759 13.52733845 -34.99130249 3.82951355 C-25.11877648 -5.84840319 -11.93552378 -6.59938633 0 0 Z " fill="#FCFCFB" transform="translate(88,8)"/>
<path d="M0 0 C1.15823776 -0.00412399 2.31647552 -0.00824799 3.5098114 -0.01249695 C5.40981651 0.00368179 5.40981651 0.00368179 7.34820557 0.02018738 C8.69853191 0.0210338 10.04885964 0.02055821 11.39918518 0.01885986 C15.06217569 0.01799907 18.72487152 0.03563822 22.38779354 0.05658174 C26.21680648 0.07533461 30.04582616 0.07709788 33.87487793 0.08065796 C41.12445838 0.08998252 48.37390312 0.11460182 55.62342381 0.14470643 C63.87727024 0.17823767 72.13112315 0.19473323 80.38502073 0.20979273 C97.36273636 0.24115106 114.3403199 0.2939195 131.31793213 0.36076355 C130.31793213 2.36076355 130.31793213 2.36076355 128.66558838 3.00138855 C127.91148682 3.2024823 127.15738525 3.40357605 126.38043213 3.61076355 C121.26765027 5.05680286 116.23137661 6.67765914 111.19293213 8.36076355 C110.44148926 8.60987488 109.69004639 8.85898621 108.91583252 9.11564636 C104.0050851 10.75596607 99.15695278 12.51950098 94.31793213 14.36076355 C91.65126546 15.36076355 88.9845988 16.36076355 86.31793213 17.36076355 C89.34065745 20.6160062 92.57511514 22.97897092 96.31793213 25.36076355 C91.78933272 32.72401192 86.94502289 39.67225244 81.63043213 46.48576355 C76.06894917 53.69342488 70.68333739 60.98150154 65.48638916 68.45549011 C62.4437196 72.81529195 59.28709975 77.05341746 56.00543213 81.23576355 C53.06008548 85.00992793 50.3349314 88.78897452 47.81793213 92.86076355 C44.50795858 98.21421842 40.74742059 103.14218589 36.86090088 108.07951355 C35.17516868 110.22743171 33.55956563 112.40527287 31.99371338 114.64201355 C27.72560048 120.66057415 23.43240232 126.59931527 16.31793213 129.36076355 C14.99793213 129.03076355 13.67793213 128.70076355 12.31793213 128.36076355 C12.64793213 101.96076355 12.97793213 75.56076355 13.31793213 48.36076355 C17.8156979 50.60964643 17.8156979 50.60964643 19.87652588 53.64201355 C20.33889648 54.31095642 20.80126709 54.97989929 21.27764893 55.66911316 C21.76531738 56.39235779 22.25298584 57.11560242 22.75543213 57.86076355 C23.811569 59.39411167 24.86890451 60.92663475 25.92730713 62.4584198 C26.47709229 63.25779968 27.02687744 64.05717957 27.59332275 64.88078308 C31.05522644 69.8589849 34.64533226 74.74557048 38.21612549 79.6459198 C38.73827637 80.36521667 39.26042725 81.08451355 39.79840088 81.8256073 C40.26141602 82.46103455 40.72443115 83.09646179 41.20147705 83.75114441 C42.31793213 85.36076355 42.31793213 85.36076355 43.31793213 87.36076355 C43.97793213 87.36076355 44.63793213 87.36076355 45.31793213 87.36076355 C46.78336023 85.71666598 46.78336023 85.71666598 48.25152588 83.56388855 C48.81806885 82.76982605 49.38461182 81.97576355 49.96832275 81.15763855 C50.85294189 79.89693542 50.85294189 79.89693542 51.75543213 78.61076355 C52.9206209 76.97001368 54.08597986 75.32938465 55.25152588 73.68888855 C55.76771484 72.95573425 56.28390381 72.22257996 56.81573486 71.46720886 C57.83746463 70.03449565 58.9042603 68.63310353 60.00836182 67.26286316 C61.57623626 65.36651044 61.57623626 65.36651044 61.33746338 62.5990448 C59.97498879 58.27149142 57.69751987 55.16203491 55.00543213 51.54826355 C53.91005108 50.03938773 52.81500877 48.53026594 51.72027588 47.0209198 C51.15679443 46.25151062 50.59331299 45.48210144 50.01275635 44.68937683 C47.3182765 40.98728107 44.69740938 37.23414035 42.06793213 33.48576355 C40.60020315 31.40730966 39.13017013 29.33050805 37.65924072 27.25431824 C36.80431622 26.04740262 35.95036994 24.83979305 35.09771729 23.63127136 C28.89096973 14.84838988 24.08418351 8.23278781 13.31793213 5.36076355 C5.24196012 4.20705326 -1.29844858 6.16167125 -8.68206787 9.36076355 C-8.02206787 7.71076355 -7.36206787 6.06076355 -6.68206787 4.36076355 C-7.67206787 4.69076355 -8.66206787 5.02076355 -9.68206787 5.36076355 C-9.68206787 4.70076355 -9.68206787 4.04076355 -9.68206787 3.36076355 C-6.56741765 0.32643498 -4.26453038 -0.01171574 0 0 Z " fill="#36403F" transform="translate(64.68206787109375,-0.3607635498046875)"/>
<path d="M0 0 C1.12588014 0.95729916 2.2506715 1.91587895 3.375 2.875 C4.00148437 3.40867188 4.62796875 3.94234375 5.2734375 4.4921875 C8.97713402 7.7266374 8.97713402 7.7266374 9.26069641 11.11662292 C9.27569317 12.47244906 9.27944452 13.82842555 9.2746582 15.18432617 C9.27976913 15.92439911 9.28488007 16.66447205 9.29014587 17.42697144 C9.30408509 19.88238541 9.30308104 22.33751982 9.30078125 24.79296875 C9.30466758 26.49970097 9.30900211 28.20643223 9.31376648 29.91316223 C9.32123927 33.49690885 9.32093107 37.08055699 9.31567383 40.66430664 C9.30989658 45.2463772 9.32676255 49.82804125 9.3500185 54.41004467 C9.36479183 57.93862752 9.36562233 61.46711351 9.36250877 64.99572182 C9.3630208 66.68413405 9.36823623 68.37255187 9.37832069 70.06093407 C9.39072925 72.43045291 9.38386611 74.79919372 9.37231445 77.16870117 C9.38378006 78.20624794 9.38378006 78.20624794 9.39547729 79.26475525 C9.31264356 86.99534925 5.99471749 93.90596633 0.5859375 99.44921875 C-2.46713994 102.18133164 -4.90293741 103.63849448 -9 104 C-9 104.66 -9 105.32 -9 106 C-20.6673466 106.43691867 -27.03456986 105.97250956 -35.8515625 98.15551758 C-39.68337907 94.31107343 -42.58975003 89.89585937 -45.5625 85.375 C-46.20251953 84.446875 -46.84253906 83.51875 -47.50195312 82.5625 C-48.10072266 81.66273438 -48.69949219 80.76296875 -49.31640625 79.8359375 C-49.85724854 79.02688965 -50.39809082 78.2178418 -50.95532227 77.38427734 C-52.25799036 74.4111863 -52.01160293 73.04750803 -51 70 C-49.49875851 67.63363629 -47.98610781 65.42281888 -46.3125 63.1875 C-45.86277832 62.57310059 -45.41305664 61.95870117 -44.94970703 61.32568359 C-43.64197811 59.5436975 -42.3229734 57.77068539 -41 56 C-40.34128906 55.11183594 -39.68257812 54.22367188 -39.00390625 53.30859375 C-37.67863854 51.53203583 -36.34111523 49.76462531 -35 48 C-30.91711311 49.3609623 -30.11314183 51.47953322 -27.8125 55.0625 C-27.09707031 56.16722656 -26.38164062 57.27195313 -25.64453125 58.41015625 C-25.10183594 59.26480469 -24.55914062 60.11945313 -24 61 C-24.03254883 60.21052979 -24.06509766 59.42105957 -24.09863281 58.60766602 C-24.61749345 41.95442161 -24.32061813 29.69318213 -12.68261719 16.91162109 C-9.77978807 13.61371744 -7.29943791 10.01042872 -4.75 6.4375 C-3.83067355 5.18432432 -2.90905762 3.9328225 -1.984375 2.68359375 C-1.32953125 1.79800781 -0.6746875 0.91242187 0 0 Z " fill="#FCFCFB" transform="translate(184,47)"/>
<path d="M0 0 C4.49776577 2.24888288 4.49776577 2.24888288 6.55859375 5.28125 C7.02096436 5.95019287 7.48333496 6.61913574 7.9597168 7.30834961 C8.44738525 8.03159424 8.93505371 8.75483887 9.4375 9.5 C10.49363687 11.03334812 11.55097238 12.5658712 12.609375 14.09765625 C13.43405273 15.29672607 13.43405273 15.29672607 14.27539062 16.52001953 C17.73729431 21.49822135 21.32740013 26.38480693 24.89819336 31.28515625 C25.42034424 32.00445312 25.94249512 32.72375 26.48046875 33.46484375 C26.94348389 34.100271 27.40649902 34.73569824 27.88354492 35.39038086 C29 37 29 37 30 39 C32.24362573 39.2284549 32.24362573 39.2284549 34.125 37 C34.74375 36.34 35.3625 35.68 36 35 C35.7215625 36.1446875 35.7215625 36.1446875 35.4375 37.3125 C34.77180827 40.08967375 34.77180827 40.08967375 36 43 C34.3543273 45.52499318 32.67626304 47.8308758 30.8125 50.1875 C29.69710055 51.6256695 28.58254128 53.06449094 27.46875 54.50390625 C26.60443359 55.61403076 26.60443359 55.61403076 25.72265625 56.74658203 C24.04958369 58.93513924 22.43853632 61.15628606 20.84375 63.40234375 C9.95022007 78.65990574 9.95022007 78.65990574 3 81 C1.68 80.67 0.36 80.34 -1 80 C-0.67 53.6 -0.34 27.2 0 0 Z " fill="#464F4E" transform="translate(78,48)"/>
<path d="M0 0 C4.73078277 2.13905938 7.60748324 4.45179824 9.76953125 9.31640625 C10.65663813 14.90702774 10.3759519 20.06503455 7.15625 24.84375 C3.32769888 28.90956344 -1.35997111 30.52912054 -6.85546875 30.81640625 C-11.26642089 30.59623824 -13.84975172 29.22539532 -17.23046875 26.31640625 C-21.27875549 21.83046689 -22.60152174 18.49282861 -22.51171875 12.375 C-21.8820013 7.76581813 -18.959266 4.95844193 -15.60546875 2.00390625 C-10.73519836 -1.45654903 -5.72844797 -1.75565393 0 0 Z " fill="#F3F4F4" transform="translate(208.23046875,198.68359375)"/>
<path d="M0 0 C0.33 0 0.66 0 1 0 C1.27000917 6.60098484 1.4998427 13.20249648 1.7019043 19.8059082 C1.77535249 22.05167192 1.85796511 24.29715551 1.94995117 26.54223633 C2.08065835 29.77134639 2.17827192 33.00003279 2.26953125 36.23046875 C2.31721146 37.23272995 2.36489166 38.23499115 2.41401672 39.2676239 C2.56256532 46.11739751 2.56256532 46.11739751 0.86703491 48.77749634 C-0.5168457 50.1730957 -0.5168457 50.1730957 -3 52 C-5.64 50.02 -8.28 48.04 -11 46 C-11.83402344 47.14855469 -12.66804688 48.29710937 -13.52734375 49.48046875 C-14.06842773 50.22458008 -14.60951172 50.96869141 -15.16699219 51.73535156 C-16.36042919 53.38825851 -17.54450942 55.04795664 -18.71972656 56.71386719 C-23.8476929 63.96008883 -23.8476929 63.96008883 -26.83203125 67.03515625 C-36.38485232 77.76086004 -34.27139382 93.44978702 -34 107 C-36.82122187 104.23988763 -39.10317352 101.56782274 -41.25 98.25 C-41.77078125 97.45078125 -42.2915625 96.6515625 -42.828125 95.828125 C-43.21484375 95.22484375 -43.6015625 94.6215625 -44 94 C-47.54035067 95.18011689 -47.98313479 96.04370775 -49.99609375 99.078125 C-50.55490234 99.90957031 -51.11371094 100.74101563 -51.68945312 101.59765625 C-52.26630859 102.47292969 -52.84316406 103.34820312 -53.4375 104.25 C-60.46825571 114.80008787 -60.46825571 114.80008787 -64 119 C-66.06164154 115.60435511 -66.06164154 115.60435511 -65.8203125 113.23828125 C-64.66997523 110.09950383 -62.78222747 107.60244791 -60.8125 104.9375 C-60.37325195 104.33317139 -59.93400391 103.72884277 -59.48144531 103.10620117 C-57.9946446 101.06556975 -56.49796289 99.0324495 -55 97 C-53.90486843 95.50787084 -52.80981873 94.01568158 -51.71484375 92.5234375 C-48.15216711 87.6756779 -44.57669557 82.83742074 -41 78 C-39.22861038 75.60355666 -37.45768152 73.20677841 -35.68798828 70.80908203 C-34.52718764 69.23641573 -33.36541387 67.66446721 -32.20263672 66.09326172 C-29.21685517 62.04901513 -26.26887501 57.98285233 -23.37109375 53.875 C-22.78400635 53.04685791 -22.19691895 52.21871582 -21.59204102 51.36547852 C-20.47449117 49.78520932 -19.36391022 48.19998098 -18.26147461 46.60913086 C-17.76010986 45.90151611 -17.25874512 45.19390137 -16.7421875 44.46484375 C-16.3076123 43.842146 -15.87303711 43.21944824 -15.42529297 42.57788086 C-14 41 -14 41 -10 39 C-5.545 42.96 -5.545 42.96 -1 47 C-0.67 31.49 -0.34 15.98 0 0 Z " fill="#717972" transform="translate(195,2)"/>
<path d="M0 0 C2.64 0 5.28 0 8 0 C8 0.99 8 1.98 8 3 C8.639375 2.505 9.27875 2.01 9.9375 1.5 C14.06442674 -0.52135187 17.48013521 -0.59681313 22 0 C26.06662662 1.55271198 27.57519602 2.36279402 30 6 C30.22705078 8.54370117 30.22705078 8.54370117 30.1953125 11.54296875 C30.18886719 12.61611328 30.18242188 13.68925781 30.17578125 14.79492188 C30.15902344 15.91447266 30.14226563 17.03402344 30.125 18.1875 C30.11597656 19.31865234 30.10695313 20.44980469 30.09765625 21.61523438 C30.07406862 24.41036828 30.041153 27.20507845 30 30 C27.36 30 24.72 30 22 30 C21.98018066 29.40461426 21.96036133 28.80922852 21.93994141 28.19580078 C21.84483874 25.50507847 21.73510158 22.81514852 21.625 20.125 C21.5940625 19.18785156 21.563125 18.25070313 21.53125 17.28515625 C21.49257813 16.38925781 21.45390625 15.49335938 21.4140625 14.5703125 C21.3826416 13.74289551 21.3512207 12.91547852 21.31884766 12.06298828 C21.17400863 9.78013915 21.17400863 9.78013915 19 8 C14.38545951 7.44867894 14.38545951 7.44867894 10.30932617 9.24145508 C8.67651832 11.43446552 8.57942528 12.73312653 8.48828125 15.44921875 C8.45283203 16.29677734 8.41738281 17.14433594 8.38085938 18.01757812 C8.34702148 19.33918945 8.34702148 19.33918945 8.3125 20.6875 C8.26125977 22.02651367 8.26125977 22.02651367 8.20898438 23.39257812 C8.12654352 25.59492671 8.05738449 27.79687938 8 30 C5.36 30 2.72 30 0 30 C0 20.1 0 10.2 0 0 Z " fill="#F2F4F4" transform="translate(17,198)"/>
<path d="M0 0 C2.31 0 4.62 0 7 0 C7.33 0.99 7.66 1.98 8 3 C8.66 2.505 9.32 2.01 10 1.5 C13.82747875 -0.41373937 16.79537264 -0.63112054 21 0 C24.735173 1.66007689 26.85827287 3.54386779 29 7 C29.34057617 9.56542969 29.34057617 9.56542969 29.29296875 12.421875 C29.28330078 13.44667969 29.27363281 14.47148437 29.26367188 15.52734375 C29.23853516 16.59082031 29.21339844 17.65429688 29.1875 18.75 C29.16719727 20.36841797 29.16719727 20.36841797 29.14648438 22.01953125 C29.11116584 24.6801942 29.06184199 27.33984296 29 30 C26.36 30 23.72 30 21 30 C20.67 22.74 20.34 15.48 20 8 C17.03 8 14.06 8 11 8 C8.56085508 10.43914492 8.71337477 11.21446431 8.5859375 14.5703125 C8.52792969 15.91416016 8.52792969 15.91416016 8.46875 17.28515625 C8.42234375 18.69087891 8.42234375 18.69087891 8.375 20.125 C8.31699219 21.54232422 8.31699219 21.54232422 8.2578125 22.98828125 C8.16338654 25.32532375 8.07781606 27.66235501 8 30 C5.36 30 2.72 30 0 30 C0 20.1 0 10.2 0 0 Z " fill="#F2F3F3" transform="translate(151,198)"/>
<path d="M0 0 C1.04929687 -0.01417969 2.09859375 -0.02835938 3.1796875 -0.04296875 C6.06047071 0.18245063 7.68740208 0.69785683 10.125 2.1875 C9.795 4.1675 9.465 6.1475 9.125 8.1875 C8.28195313 7.94193359 8.28195313 7.94193359 7.421875 7.69140625 C4.99440944 7.15885003 2.85610319 7.08851319 0.375 7.125 C-0.82382813 7.13853516 -0.82382813 7.13853516 -2.046875 7.15234375 C-2.95179687 7.16974609 -2.95179687 7.16974609 -3.875 7.1875 C-3.875 8.5075 -3.875 9.8275 -3.875 11.1875 C-3.05515625 11.35765625 -2.2353125 11.5278125 -1.390625 11.703125 C0.22585937 12.06664062 0.22585937 12.06664062 1.875 12.4375 C2.94234375 12.66953125 4.0096875 12.9015625 5.109375 13.140625 C8.4398962 14.2968163 9.95242636 15.44074618 12.125 18.1875 C12.77909142 22.03028709 12.47586139 23.63614639 10.375 26.9375 C6.54684276 30.76565724 3.62978301 31.47946648 -1.75 31.5 C-6.66963839 31.43384349 -9.79547131 30.90718579 -13.875 28.1875 C-13.545 26.5375 -13.215 24.8875 -12.875 23.1875 C-9.875 22.1875 -9.875 22.1875 -7.1875 23.125 C-3.16678253 24.41466409 -0.0776883 24.33242029 4.125 24.1875 C3.795 22.8675 3.465 21.5475 3.125 20.1875 C2.30515625 20.00574219 1.4853125 19.82398438 0.640625 19.63671875 C-0.43703125 19.38535156 -1.5146875 19.13398438 -2.625 18.875 C-3.69234375 18.63136719 -4.7596875 18.38773438 -5.859375 18.13671875 C-8.8695952 17.18920125 -10.66809789 16.43109645 -12.875 14.1875 C-13.69274214 11.12519668 -13.5398543 8.27711706 -12.875 5.1875 C-8.81155477 0.91018923 -5.73964502 0.0350834 0 0 Z " fill="#F1F1F0" transform="translate(118.875,197.8125)"/>
<path d="M0 0 C5.10880829 -0.70466321 5.10880829 -0.70466321 8 0 C10.49126669 2.37660588 12.25736814 5.04280654 14 8 C14.78375 7.21625 15.5675 6.4325 16.375 5.625 C21 1 21 1 22.9453125 0.8046875 C24.96354167 0.86979167 26.98177083 0.93489583 29 1 C27.25492351 4.82214313 24.84832642 7.71731103 22.14453125 10.90234375 C20.797078 12.95239165 20.797078 12.95239165 21.0703125 15.39453125 C22.23855688 18.66856068 23.95072724 20.99389446 26.0625 23.75 C30 28.92618629 30 28.92618629 30 30 C26.86777159 30.50115655 24.11209905 30.68820402 21 30 C18.44649143 27.64767696 16.71118512 25.00631739 15 22 C12.35247996 24.57784846 10.05567935 26.91648098 8 30 C5.8359375 30.29296875 5.8359375 30.29296875 3.375 30.1875 C2.14910156 30.14689453 2.14910156 30.14689453 0.8984375 30.10546875 C0.27195313 30.07066406 -0.35453125 30.03585938 -1 30 C0.1217963 28.2063257 1.24754483 26.4151227 2.375 24.625 C3.00148438 23.62726563 3.62796875 22.62953125 4.2734375 21.6015625 C6 19 6 19 8 17 C7.71774095 12.73716465 5.95433567 10.17336541 3.4375 6.8125 C0 2.19919517 0 2.19919517 0 0 Z " fill="#F4F4F4" transform="translate(52,198)"/>
<path d="M0 0 C0.99 0.33 1.98 0.66 3 1 C2.67 2.98 2.34 4.96 2 7 C-0.31 7.33 -2.62 7.66 -5 8 C-5.66 9.65 -6.32 11.3 -7 13 C-4.36 13 -1.72 13 1 13 C1 14.98 1 16.96 1 19 C-1.31 19 -3.62 19 -6 19 C-6 26.59 -6 34.18 -6 42 C-8.64 42 -11.28 42 -14 42 C-14 34.41 -14 26.82 -14 19 C-15.65 19 -17.3 19 -19 19 C-19 17.02 -19 15.04 -19 13 C-17.35 13 -15.7 13 -14 13 C-14.0825 11.948125 -14.165 10.89625 -14.25 9.8125 C-13.96269651 5.43112175 -13.05154419 4.05154419 -10 1 C-6.85658007 -0.57170996 -3.44228549 -0.23175783 0 0 Z " fill="#F1F2F2" transform="translate(102,186)"/>
<path d="M0 0 C3.37042062 4.49389417 3.37042062 4.49389417 3.625 8.125 C3.85238693 11.29350635 4.16203548 14.43854443 4.52734375 17.59375 C5.19487891 24.17286937 5.01772252 30.71393572 4.87304688 37.31640625 C4.86208984 38.25097656 4.85113281 39.18554688 4.83984375 40.1484375 C4.82300537 40.98552246 4.80616699 41.82260742 4.78881836 42.68505859 C5.02121424 45.23254732 5.80731308 46.76415095 7 49 C7.21194101 55.97386846 6.28169236 63.74515046 3 70 C1.515 70.99 1.515 70.99 0 72 C0 48.24 0 24.48 0 0 Z " fill="#51575D" transform="translate(193,55)"/>
<path d="M0 0 C0.66 0 1.32 0 2 0 C2.495 1.485 2.495 1.485 3 3 C2.34 3 1.68 3 1 3 C0.97686338 13.39615851 0.95907815 23.79231093 0.94818783 34.18848991 C0.9429619 39.01548037 0.93586948 43.84245325 0.92456055 48.66943359 C0.9137214 53.32485248 0.90772097 57.98025444 0.90512276 62.63568497 C0.90327037 64.41474804 0.8996533 66.19381016 0.89426994 67.97286606 C0.88704591 70.45833107 0.88600964 72.94372546 0.88647461 75.42919922 C0.88287933 76.17006775 0.87928406 76.91093628 0.87557983 77.67425537 C0.81994805 81.46292044 0.81994805 81.46292044 2 85 C-6.75875065 88.25546484 -15.76287887 89.83444424 -24.75 86.5 C-25.8225 86.005 -26.895 85.51 -28 85 C-26.515 84.01 -26.515 84.01 -25 83 C-26.98 82.01 -28.96 81.02 -31 80 C-30.67 79.01 -30.34 78.02 -30 77 C-29.34515625 77.3609375 -28.6903125 77.721875 -28.015625 78.09375 C-20.90490961 81.70936799 -14.95728283 83.04556275 -7 82 C-4.03 81.01 -4.03 81.01 -1 80 C-0.67 53.6 -0.34 27.2 0 0 Z " fill="#7D8B7C" transform="translate(77,45)"/>
<path d="M0 0 C1.90625 0.40625 1.90625 0.40625 4.40625 1.84375 C6.63965143 5.65914411 6.67351228 9.09534336 5.90625 13.40625 C4.34375 15.96875 4.34375 15.96875 1.90625 17.40625 C-2.50143137 18.12750695 -4.35312488 17.92626338 -8.03125 15.34375 C-10.62702109 11.6467427 -10.80628588 9.83980658 -10.09375 5.40625 C-7.62971708 0.5808522 -5.16294366 -0.3852943 0 0 Z " fill="#2F373F" transform="translate(204.09375,204.59375)"/>
<path d="M0 0 C0.33 0 0.66 0 1 0 C1.27000917 6.60098484 1.4998427 13.20249648 1.7019043 19.8059082 C1.77535249 22.05167192 1.85796511 24.29715551 1.94995117 26.54223633 C2.08065835 29.77134639 2.17827192 33.00003279 2.26953125 36.23046875 C2.31721146 37.23272995 2.36489166 38.23499115 2.41401672 39.2676239 C2.56256532 46.11739751 2.56256532 46.11739751 0.86703491 48.77749634 C-0.5168457 50.1730957 -0.5168457 50.1730957 -3 52 C-5.64 50.02 -8.28 48.04 -11 46 C-14.11089621 47.55544811 -17.03851491 49.19020355 -20 51 C-18.59023295 47.96147295 -16.91129772 45.4060405 -14.875 42.75 C-14.33617187 42.04359375 -13.79734375 41.3371875 -13.2421875 40.609375 C-12.83226562 40.07828125 -12.42234375 39.5471875 -12 39 C-8 41 -8 41 -1 47 C-0.67 31.49 -0.34 15.98 0 0 Z " fill="#516843" transform="translate(195,2)"/>
<path d="M0 0 C1.16015625 0.00966797 2.3203125 0.01933594 3.515625 0.02929688 C4.7221875 0.05443359 5.92875 0.07957031 7.171875 0.10546875 C9.00492188 0.12577148 9.00492188 0.12577148 10.875 0.14648438 C13.89106998 0.18182895 16.90624987 0.23117315 19.921875 0.29296875 C20.251875 2.60296875 20.581875 4.91296875 20.921875 7.29296875 C19.82875 6.96296875 18.735625 6.63296875 17.609375 6.29296875 C7.87384238 3.92764568 0.02413242 5.34924407 -9.078125 9.29296875 C-8.418125 7.64296875 -7.758125 5.99296875 -7.078125 4.29296875 C-8.068125 4.62296875 -9.058125 4.95296875 -10.078125 5.29296875 C-10.078125 4.63296875 -10.078125 3.97296875 -10.078125 3.29296875 C-6.87512742 0.11651801 -4.40535282 -0.0647846 0 0 Z " fill="#5B6066" transform="translate(65.078125,-0.29296875)"/>
<path d="M0 0 C3 0 3 0 6 1 C5.62713867 1.50861572 5.25427734 2.01723145 4.87011719 2.54125977 C3.159652 4.87894861 1.45480222 7.22067854 -0.25 9.5625 C-0.83652344 10.36236328 -1.42304688 11.16222656 -2.02734375 11.98632812 C-5.32687922 16.52782358 -8.32353588 21.06444116 -11 26 C-12.5625 24.25 -12.5625 24.25 -14 22 C-13.37700192 17.60236647 -10.69723627 14.48308481 -8.125 11 C-7.67769531 10.38382813 -7.23039063 9.76765625 -6.76953125 9.1328125 C-5.90450401 7.94371901 -5.03395499 6.75861757 -4.15722656 5.578125 C-3.19339021 4.26372875 -2.27430342 2.91666348 -1.3671875 1.5625 C-0.91601562 1.046875 -0.46484375 0.53125 0 0 Z " fill="#6C756A" transform="translate(143,95)"/>
<path d="M0 0 C3.39946738 4.53262317 3.39946738 4.53262317 3.75 8.375 C3.82734375 9.10460937 3.9046875 9.83421875 3.984375 10.5859375 C4.00314329 13.48563898 3.4931478 16.14254078 3 19 C2.77674736 21.56602721 2.58462057 24.11741224 2.4375 26.6875 C2.39431641 27.42009033 2.35113281 28.15268066 2.30664062 28.9074707 C1.9661685 35.30280729 1.96767662 41.67776372 2.01928711 48.08007812 C2.05487727 55.09351852 1.63827315 62.01318857 1 69 C0.67 69 0.34 69 0 69 C0 46.23 0 23.46 0 0 Z " fill="#5A6166" transform="translate(193,55)"/>
<path d="M0 0 C2.5625 0.3125 2.5625 0.3125 4.4375 1.5 C5.5625 3.3125 5.5625 3.3125 5.375 5.875 C4.5625 8.3125 4.5625 8.3125 2.5625 10.3125 C0.0625 10.5625 0.0625 10.5625 -2.4375 10.3125 C-4.4375 8.3125 -4.4375 8.3125 -4.6875 5.3125 C-4.37675292 1.58353509 -3.7821044 0.48488518 0 0 Z " fill="#F0F0F1" transform="translate(139.4375,218.6875)"/>
<path d="M0 0 C2.02910711 0.25327449 4.04962145 0.57730068 6.0625 0.9375 C7.16722656 1.13214844 8.27195312 1.32679688 9.41015625 1.52734375 C10.69212891 1.76130859 10.69212891 1.76130859 12 2 C12.33 3.65 12.66 5.3 13 7 C10.37684968 8.31157516 8.76966564 7.89649988 5.875 7.5625 C4.96492188 7.46066406 4.05484375 7.35882813 3.1171875 7.25390625 C2.41851562 7.17011719 1.71984375 7.08632812 1 7 C0.34 5.02 -0.32 3.04 -1 1 C-0.67 0.67 -0.34 0.34 0 0 Z " fill="#31383E" transform="translate(110,215)"/>
<path d="M0 0 C2 3 2 3 2 5 C0.47058649 8.05882701 -1.94219546 8.68951234 -5 10 C-5.99 10.495 -5.99 10.495 -7 11 C-5.22054913 6.95579349 -2.60470327 3.53921513 0 0 Z " fill="#677758" transform="translate(182,42)"/>
<path d="M0 0 C0.88945313 0.00966797 1.77890625 0.01933594 2.6953125 0.02929688 C3.61570312 0.05443359 4.53609375 0.07957031 5.484375 0.10546875 C6.42023438 0.11900391 7.35609375 0.13253906 8.3203125 0.14648438 C10.62558827 0.18176921 12.9296856 0.23106594 15.234375 0.29296875 C15.234375 0.62296875 15.234375 0.95296875 15.234375 1.29296875 C13.51541016 1.34904297 13.51541016 1.34904297 11.76171875 1.40625 C10.23174054 1.47195459 8.70179403 1.53840034 7.171875 1.60546875 C6.41970703 1.62802734 5.66753906 1.65058594 4.89257812 1.67382812 C-0.31397884 1.92175941 -4.09030337 2.97703918 -8.765625 5.29296875 C-8.765625 4.63296875 -8.765625 3.97296875 -8.765625 3.29296875 C-5.87826817 0.56753913 -3.92539491 -0.07548836 0 0 Z " fill="#4B5158" transform="translate(63.765625,-0.29296875)"/>
<path d="M0 0 C4.75 0.75 4.75 0.75 7 3 C7.99 3 8.98 3 10 3 C9.67 4.65 9.34 6.3 9 8 C7.87411986 7.04270084 6.7493285 6.08412105 5.625 5.125 C4.99851563 4.59132813 4.37203125 4.05765625 3.7265625 3.5078125 C2.44163349 2.38567993 1.20628025 1.20628025 0 0 Z " fill="#5A6D5A" transform="translate(183,46)"/>
<path d="M0 0 C2.63548461 2.63548461 2.64649512 4.32354922 3 8 C2.5625 11.375 2.5625 11.375 2 14 C1.67 14 1.34 14 1 14 C-0.20568053 9.32798795 -0.09382426 4.78503708 0 0 Z " fill="#6A9A3C" transform="translate(25,101)"/>
<path d="M0 0 C1.89213369 2.38573379 3.02391783 4.07175348 4 7 C3.34 7 2.68 7 2 7 C1.67 6.34 1.34 5.68 1 5 C-1.24362573 4.7715451 -1.24362573 4.7715451 -3.125 7 C-3.74375 7.66 -4.3625 8.32 -5 9 C-3.7508258 5.54074837 -2.32472205 2.85306797 0 0 Z " fill="#4E6046" transform="translate(128,115)"/>
<path d="M0 0 C0 0.99 0 1.98 0 3 C0.31088368 4.67099977 0.64080332 6.33871537 1 8 C0.01 8.33 -0.98 8.66 -2 9 C-2.99 7.68 -3.98 6.36 -5 5 C-3.35 3.35 -1.7 1.7 0 0 Z " fill="#606D5D" transform="translate(113,83)"/>
<path d="M0 0 C0.66 0 1.32 0 2 0 C2 1.32 2 2.64 2 4 C-0.70879335 5.35439668 -3.00933268 5.06501451 -6 5 C-5.38125 4.731875 -4.7625 4.46375 -4.125 4.1875 C-1.7004767 3.04443152 -1.7004767 3.04443152 0 0 Z " fill="#52595E" transform="translate(121,218)"/>
<path d="M0 0 C2.97 0 5.94 0 9 0 C9 0.33 9 0.66 9 1 C6.36 1 3.72 1 1 1 C1 2.32 1 3.64 1 5 C0.01 4.67 -0.98 4.34 -2 4 C-1.34 2.68 -0.68 1.36 0 0 Z " fill="#4C5256" transform="translate(115,204)"/>
</svg>
